<svg height="512" viewBox="0 0 46 58" width="512" xmlns="http://www.w3.org/2000/svg"><g id="Page-1" fill="none" fill-rule="evenodd"><g id="005---Flight-Tower" fill-rule="nonzero"><rect id="Rectangle-path" fill="#95a5a5" height="6" rx="2" width="46"/><path id="Shape" d="m44 6-7 22h-28l-7-22z" fill="#2fa8cc"/><path id="Shape" d="m32 6-2 22h-14l-2-22z" fill="#67b9cc"/><path id="Shape" d="m7 28h32c.5522847 0 1 .4477153 1 1v3c0 2.209139-1.790861 4-4 4h-26c-2.209139 0-4-1.790861-4-4v-3c0-.5522847.44771525-1 1-1z" fill="#547580"/><path id="Shape" d="m13 36h20v6c0 1.1045695-.8954305 2-2 2h-16c-1.1045695 0-2-.8954305-2-2z" fill="#35495e"/><path id="Shape" d="m29 44v12c-.0032948 1.1032019-.8967981 1.9967052-2 2h-8c-1.1032019-.0032948-1.9967052-.8967981-2-2v-12z" fill="#95a5a5"/><path id="Shape" d="m19 13c-.4043959-.0000863-.7689341-.2437275-.923678-.6173454-.1547439-.373618-.0692299-.8036603.216678-1.0896546l2-2c.3923789-.37897221 1.0160848-.37355237 1.4018186.01218142.3857338.3857338.3911536 1.00943968.0121814 1.40181858l-2 2c-.1874927.1875494-.4418052.2929434-.707.293z" fill="#9fc9d3"/><path id="Shape" d="m19 18c-.4043959-.0000863-.7689341-.2437275-.923678-.6173454-.1547439-.373618-.0692299-.8036603.216678-1.0896546l7-7c.3923789-.37897221 1.0160848-.37355237 1.4018186.01218142.3857338.3857338.3911536 1.00943968.0121814 1.40181858l-7 7c-.1874927.1875494-.4418052.2929434-.707.293z" fill="#9fc9d3"/><path id="Shape" d="m12 33h-2c-.55228475 0-1-.4477153-1-1s.44771525-1 1-1h2c.5522847 0 1 .4477153 1 1s-.4477153 1-1 1z" fill="#3f5c6c"/><path id="Shape" d="m36 33h-20c-.5522847 0-1-.4477153-1-1s.4477153-1 1-1h20c.5522847 0 1 .4477153 1 1s-.4477153 1-1 1z" fill="#3f5c6c"/><path id="Rectangle-path" d="m19 36h8v8h-8z" fill="#2c3e50"/><g fill="#7f8c8d"><path id="Shape" d="m29 46v2h-3c-.5522847 0-1-.4477153-1-1s.4477153-1 1-1z"/><path id="Shape" d="m29 50v2h-3c-.5522847 0-1-.4477153-1-1s.4477153-1 1-1z"/><path id="Shape" d="m29 54v2h-3c-.5522847 0-1-.4477153-1-1s.4477153-1 1-1z"/></g></g></g></svg>