<svg height="512" viewBox="0 0 46 58" width="512" xmlns="http://www.w3.org/2000/svg"><g id="Page-1" fill="none" fill-rule="evenodd"><g id="003---Hot-Air-Balloon" fill-rule="nonzero"><path id="Shape" d="m20 51.625c-.5522847 0-1-.4477153-1-1v-8.25c0-.5522847.4477153-1 1-1s1 .4477153 1 1v8.25c0 .5522847-.4477153 1-1 1z" fill="#603e26"/><path id="Shape" d="m26 51.625c-.5522847 0-1-.4477153-1-1v-8.25c0-.5522847.4477153-1 1-1s1 .4477153 1 1v8.25c0 .5522847-.4477153 1-1 1z" fill="#603e26"/><path id="Shape" d="m46 17c0 13-17 28-23 28s-23-15-23-28c0-11 10.3-17 23-17s23 6 23 17z" fill="#e64c3c"/><path id="Shape" d="m40 17c0 13-12.565 28-17 28s-17-15-17-28c0-11 7.611-17 17-17s17 6 17 17z" fill="#ecf0f1"/><path id="Shape" d="m34 17c0 13-8.13 28-11 28s-11-15-11-28c0-11 4.925-17 11-17s11 6 11 17z" fill="#e64c3c"/><path id="Shape" d="m27 17c0 13-2.957 28-4 28s-4-15-4-28c0-11 1.791-17 4-17s4 6 4 17z" fill="#ecf0f1"/><rect id="Rectangle-path" fill="#a56a43" height="8" rx="2" width="12" x="17" y="50"/><path id="Shape" d="m29 54v2c-.0032948 1.1032019-.8967981 1.9967052-2 2h-8c-1.1032019-.0032948-1.9967052-.8967981-2-2v-2z" fill="#805333"/></g></g></svg>