<svg height="512" viewBox="0 0 58 58" width="512" xmlns="http://www.w3.org/2000/svg"><g id="Page-1" fill="none" fill-rule="evenodd"><g id="004---Radar" fill-rule="nonzero"><rect id="Rectangle-path" fill="#95a5a5" height="58" rx="6" width="58"/><circle id="Oval" cx="29" cy="29" fill="#35495e" r="27"/><circle id="Oval" cx="29" cy="29" fill="#14a085" r="25"/><path id="Shape" d="m16.38 19.18c-4.9581365 6.3676249-4.3952868 15.4315747 1.3125491 21.1368682 5.707836 5.7052934 14.7720356 6.2641048 21.1374509 1.3031318l2.79-2.79c4.9657636-6.364938 4.4090198-15.432837-1.2980902-21.1424903-5.7071099-5.7096532-14.77476-6.270437-21.1419098-1.3075097z" fill="#26b99a"/><circle id="Oval" cx="29" cy="29" fill="#81ccb8" r="10"/><g fill="#547580"><circle id="Oval" cx="5" cy="5" r="1"/><circle id="Oval" cx="53" cy="5" r="1"/><circle id="Oval" cx="5" cy="53" r="1"/><circle id="Oval" cx="53" cy="53" r="1"/></g><circle id="Oval" cx="18" cy="18" fill="#e64c3c" r="2"/><circle id="Oval" cx="40" cy="40" fill="#e64c3c" r="2"/><path id="Shape" d="m29 30c-.3971166-.0000246-.756589-.2350287-.91592-.5987803-.1593309-.3637516-.088325-.7873144.18092-1.0792197l12-13c.3757721-.3996457 1.0033507-.4219643 1.4065628-.0500217.4032122.3719427.4315165.9992798.0634372 1.4060217l-12 13c-.1893038.205236-.4557909.3219827-.735.322z" fill="#e64c3c"/><path id="Shape" d="m46 28h-16v-16c0-.5522847-.4477153-1-1-1s-1 .4477153-1 1v16h-16c-.5522847 0-1 .4477153-1 1s.4477153 1 1 1h16v16c0 .5522847.4477153 1 1 1s1-.4477153 1-1v-16h16c.5522847 0 1-.4477153 1-1s-.4477153-1-1-1z" fill="#35495e"/></g></g></svg>